STARTFONT 2.1
FONT -Cronyx-Courier-Medium-R-Normal--10-100-75-75-M-60-KOI8-R
SIZE 10 72 72
FONTBOUNDINGBOX 6 12 0 -2
STARTPROPERTIES 21
DEFAULT_CHAR 32
FONT_ASCENT 10
FONT_DESCENT 2
SPACING "M"
FONTNAME_REGISTRY ""
FOUNDRY "Cronyx"
FAMILY_NAME "Courier"
WEIGHT_NAME "Medium"
SLANT "R"
SETWIDTH_NAME "Normal"
ADD_STYLE_NAME ""
AVERAGE_WIDTH 60
CHARSET_REGISTRY "KOI8"
CHARSET_ENCODING "R"
PIXEL_SIZE 10
POINT_SIZE 100
RESOLUTION_X 75
RESOLUTION_Y 75
COPYRIGHT "Copyright (C) 1990, 1991 EWT Consulting, Portions Copyright (C) 1996-1997 by Andrey A. Chernov, Moscow, Russia."
_XMBDFED_INFO "Edited with xmbdfed 3.8."
_XFREE86_GLYPH_RANGES "32_126 149 154 156_158 163 179 191_255"
ENDPROPERTIES
CHARS 167
STARTCHAR space
ENCODING 32
SWIDTH 600 0
DWIDTH 6 0
BBX 0 0 0 0
BITMAP
ENDCHAR
STARTCHAR exclam
ENCODING 33
SWIDTH 600 0
DWIDTH 6 0
BBX 2 8 2 0
BITMAP
40
40
40
40
40
00
C0
C0
ENDCHAR
STARTCHAR quotedbl
ENCODING 34
SWIDTH 600 0
DWIDTH 6 0
BBX 3 3 2 5
BITMAP
A0
A0
A0
ENDCHAR
STARTCHAR numbersign
ENCODING 35
SWIDTH 600 0
DWIDTH 6 0
BBX 5 8 1 0
BITMAP
50
50
F8
50
50
F8
50
50
ENDCHAR
STARTCHAR dollar
ENCODING 36
SWIDTH 600 0
DWIDTH 6 0
BBX 5 9 1 -1
BITMAP
20
70
88
80
70
08
88
70
20
ENDCHAR
STARTCHAR percent
ENCODING 37
SWIDTH 600 0
DWIDTH 6 0
BBX 6 8 0 0
BITMAP
40
A4
48
10
20
48
94
08
ENDCHAR
STARTCHAR ampersand
ENCODING 38
SWIDTH 600 0
DWIDTH 6 0
BBX 5 8 1 0
BITMAP
70
80
80
60
A8
90
90
68
ENDCHAR
STARTCHAR quotesingle
ENCODING 39
SWIDTH 600 0
DWIDTH 6 0
BBX 1 3 3 5
BITMAP
80
80
80
ENDCHAR
STARTCHAR parenleft
ENCODING 40
SWIDTH 600 0
DWIDTH 6 0
BBX 3 10 2 -2
BITMAP
20
40
40
80
80
80
80
40
40
20
ENDCHAR
STARTCHAR parenright
ENCODING 41
SWIDTH 600 0
DWIDTH 6 0
BBX 3 10 2 -2
BITMAP
80
40
40
20
20
20
20
40
40
80
ENDCHAR
STARTCHAR asterisk
ENCODING 42
SWIDTH 600 0
DWIDTH 6 0
BBX 5 6 1 2
BITMAP
20
A8
A8
70
50
88
ENDCHAR
STARTCHAR plus
ENCODING 43
SWIDTH 600 0
DWIDTH 6 0
BBX 5 7 1 0
BITMAP
20
20
20
F8
20
20
20
ENDCHAR
STARTCHAR comma
ENCODING 44
SWIDTH 600 0
DWIDTH 6 0
BBX 2 4 2 -2
BITMAP
C0
C0
80
80
ENDCHAR
STARTCHAR hyphen
ENCODING 45
SWIDTH 600 0
DWIDTH 6 0
BBX 5 1 1 3
BITMAP
F8
ENDCHAR
STARTCHAR period
ENCODING 46
SWIDTH 600 0
DWIDTH 6 0
BBX 2 2 2 0
BITMAP
C0
C0
ENDCHAR
STARTCHAR slash
ENCODING 47
SWIDTH 600 0
DWIDTH 6 0
BBX 5 8 1 0
BITMAP
08
10
10
20
20
40
40
80
ENDCHAR
STARTCHAR zero
ENCODING 48
SWIDTH 600 0
DWIDTH 6 0
BBX 5 8 1 0
BITMAP
70
88
88
88
88
88
88
70
ENDCHAR
STARTCHAR one
ENCODING 49
SWIDTH 600 0
DWIDTH 6 0
BBX 5 8 1 0
BITMAP
20
E0
20
20
20
20
20
F8
ENDCHAR
STARTCHAR two
ENCODING 50
SWIDTH 600 0
DWIDTH 6 0
BBX 5 8 1 0
BITMAP
70
88
08
08
10
20
40
F8
ENDCHAR
STARTCHAR three
ENCODING 51
SWIDTH 600 0
DWIDTH 6 0
BBX 5 8 1 0
BITMAP
70
88
08
70
08
08
88
70
ENDCHAR
STARTCHAR four
ENCODING 52
SWIDTH 600 0
DWIDTH 6 0
BBX 5 8 1 0
BITMAP
10
30
50
50
90
F8
10
10
ENDCHAR
STARTCHAR five
ENCODING 53
SWIDTH 600 0
DWIDTH 6 0
BBX 5 8 1 0
BITMAP
F8
80
80
F0
08
08
08
F0
ENDCHAR
STARTCHAR six
ENCODING 54
SWIDTH 600 0
DWIDTH 6 0
BBX 5 8 1 0
BITMAP
70
80
80
F0
88
88
88
70
ENDCHAR
STARTCHAR seven
ENCODING 55
SWIDTH 600 0
DWIDTH 6 0
BBX 5 8 1 0
BITMAP
F8
88
10
10
20
20
40
40
ENDCHAR
STARTCHAR eight
ENCODING 56
SWIDTH 600 0
DWIDTH 6 0
BBX 5 8 1 0
BITMAP
70
88
88
70
88
88
88
70
ENDCHAR
STARTCHAR nine
ENCODING 57
SWIDTH 600 0
DWIDTH 6 0
BBX 5 8 1 0
BITMAP
70
88
88
88
78
08
08
70
ENDCHAR
STARTCHAR colon
ENCODING 58
SWIDTH 600 0
DWIDTH 6 0
BBX 2 6 2 0
BITMAP
C0
C0
00
00
C0
C0
ENDCHAR
STARTCHAR semicolon
ENCODING 59
SWIDTH 600 0
DWIDTH 6 0
BBX 2 8 2 -2
BITMAP
C0
C0
00
00
C0
C0
80
80
ENDCHAR
STARTCHAR less
ENCODING 60
SWIDTH 600 0
DWIDTH 6 0
BBX 4 7 1 0
BITMAP
10
20
40
80
40
20
10
ENDCHAR
STARTCHAR equal
ENCODING 61
SWIDTH 600 0
DWIDTH 6 0
BBX 5 4 1 2
BITMAP
F8
00
00
F8
ENDCHAR
STARTCHAR greater
ENCODING 62
SWIDTH 600 0
DWIDTH 6 0
BBX 4 7 2 0
BITMAP
80
40
20
10
20
40
80
ENDCHAR
STARTCHAR question
ENCODING 63
SWIDTH 600 0
DWIDTH 6 0
BBX 4 8 1 0
BITMAP
60
90
10
20
40
00
60
60
ENDCHAR
STARTCHAR at
ENCODING 64
SWIDTH 600 0
DWIDTH 6 0
BBX 5 9 1 -1
BITMAP
70
88
88
98
A8
A8
98
80
70
ENDCHAR
STARTCHAR A
ENCODING 65
SWIDTH 600 0
DWIDTH 6 0
BBX 5 8 1 0
BITMAP
20
20
50
50
70
88
88
88
ENDCHAR
STARTCHAR B
ENCODING 66
SWIDTH 600 0
DWIDTH 6 0
BBX 5 8 1 0
BITMAP
F0
88
88
F0
88
88
88
F0
ENDCHAR
STARTCHAR C
ENCODING 67
SWIDTH 600 0
DWIDTH 6 0
BBX 5 8 1 0
BITMAP
70
88
80
80
80
80
88
70
ENDCHAR
STARTCHAR D
ENCODING 68
SWIDTH 600 0
DWIDTH 6 0
BBX 5 8 1 0
BITMAP
F0
88
88
88
88
88
88
F0
ENDCHAR
STARTCHAR E
ENCODING 69
SWIDTH 600 0
DWIDTH 6 0
BBX 5 8 1 0
BITMAP
F8
88
80
F0
80
80
88
F8
ENDCHAR
STARTCHAR F
ENCODING 70
SWIDTH 600 0
DWIDTH 6 0
BBX 5 8 1 0
BITMAP
F8
88
80
F0
80
80
80
80
ENDCHAR
STARTCHAR G
ENCODING 71
SWIDTH 600 0
DWIDTH 6 0
BBX 5 8 1 0
BITMAP
70
88
80
80
98
88
88
78
ENDCHAR
STARTCHAR H
ENCODING 72
SWIDTH 600 0
DWIDTH 6 0
BBX 5 8 1 0
BITMAP
88
88
88
F8
88
88
88
88
ENDCHAR
STARTCHAR I
ENCODING 73
SWIDTH 600 0
DWIDTH 6 0
BBX 3 8 2 0
BITMAP
E0
40
40
40
40
40
40
E0
ENDCHAR
STARTCHAR J
ENCODING 74
SWIDTH 600 0
DWIDTH 6 0
BBX 5 8 1 0
BITMAP
38
10
10
10
10
90
90
60
ENDCHAR
STARTCHAR K
ENCODING 75
SWIDTH 600 0
DWIDTH 6 0
BBX 5 8 1 0
BITMAP
88
90
A0
C0
A0
90
90
88
ENDCHAR
STARTCHAR L
ENCODING 76
SWIDTH 600 0
DWIDTH 6 0
BBX 5 8 1 0
BITMAP
80
80
80
80
80
80
88
F8
ENDCHAR
STARTCHAR M
ENCODING 77
SWIDTH 600 0
DWIDTH 6 0
BBX 5 8 1 0
BITMAP
88
88
D8
A8
A8
A8
88
88
ENDCHAR
STARTCHAR N
ENCODING 78
SWIDTH 600 0
DWIDTH 6 0
BBX 5 8 1 0
BITMAP
88
88
C8
A8
98
88
88
88
ENDCHAR
STARTCHAR O
ENCODING 79
SWIDTH 600 0
DWIDTH 6 0
BBX 5 8 1 0
BITMAP
70
88
88
88
88
88
88
70
ENDCHAR
STARTCHAR P
ENCODING 80
SWIDTH 600 0
DWIDTH 6 0
BBX 5 8 1 0
BITMAP
F0
88
88
88
F0
80
80
80
ENDCHAR
STARTCHAR Q
ENCODING 81
SWIDTH 600 0
DWIDTH 6 0
BBX 5 9 1 -1
BITMAP
70
88
88
88
88
88
88
70
58
ENDCHAR
STARTCHAR R
ENCODING 82
SWIDTH 600 0
DWIDTH 6 0
BBX 5 8 1 0
BITMAP
F0
88
88
88
F0
88
88
88
ENDCHAR
STARTCHAR S
ENCODING 83
SWIDTH 600 0
DWIDTH 6 0
BBX 5 8 1 0
BITMAP
70
88
80
40
30
08
88
70
ENDCHAR
STARTCHAR T
ENCODING 84
SWIDTH 600 0
DWIDTH 6 0
BBX 5 8 1 0
BITMAP
F8
20
20
20
20
20
20
70
ENDCHAR
STARTCHAR U
ENCODING 85
SWIDTH 600 0
DWIDTH 6 0
BBX 5 8 1 0
BITMAP
88
88
88
88
88
88
88
70
ENDCHAR
STARTCHAR V
ENCODING 86
SWIDTH 600 0
DWIDTH 6 0
BBX 5 8 1 0
BITMAP
88
88
88
50
50
50
20
20
ENDCHAR
STARTCHAR W
ENCODING 87
SWIDTH 600 0
DWIDTH 6 0
BBX 5 8 1 0
BITMAP
88
88
88
A8
A8
A8
D8
88
ENDCHAR
STARTCHAR X
ENCODING 88
SWIDTH 600 0
DWIDTH 6 0
BBX 5 8 1 0
BITMAP
88
50
50
20
20
50
50
88
ENDCHAR
STARTCHAR Y
ENCODING 89
SWIDTH 600 0
DWIDTH 6 0
BBX 5 8 1 0
BITMAP
88
88
50
50
20
20
20
20
ENDCHAR
STARTCHAR Z
ENCODING 90
SWIDTH 600 0
DWIDTH 6 0
BBX 5 8 1 0
BITMAP
F8
08
10
20
20
40
80
F8
ENDCHAR
STARTCHAR bracketleft
ENCODING 91
SWIDTH 600 0
DWIDTH 6 0
BBX 3 10 2 -2
BITMAP
E0
80
80
80
80
80
80
80
80
E0
ENDCHAR
STARTCHAR backslash
ENCODING 92
SWIDTH 600 0
DWIDTH 6 0
BBX 5 8 1 0
BITMAP
80
40
40
20
20
10
10
08
ENDCHAR
STARTCHAR bracketright
ENCODING 93
SWIDTH 600 0
DWIDTH 6 0
BBX 3 10 2 -2
BITMAP
E0
20
20
20
20
20
20
20
20
E0
ENDCHAR
STARTCHAR asciicircum
ENCODING 94
SWIDTH 600 0
DWIDTH 6 0
BBX 5 3 1 5
BITMAP
20
50
88
ENDCHAR
STARTCHAR underscore
ENCODING 95
SWIDTH 600 0
DWIDTH 6 0
BBX 6 1 0 -2
BITMAP
FC
ENDCHAR
STARTCHAR grave
ENCODING 96
SWIDTH 600 0
DWIDTH 6 0
BBX 2 2 2 6
BITMAP
80
40
ENDCHAR
STARTCHAR a
ENCODING 97
SWIDTH 600 0
DWIDTH 6 0
BBX 5 6 1 0
BITMAP
70
08
78
88
88
78
ENDCHAR
STARTCHAR b
ENCODING 98
SWIDTH 600 0
DWIDTH 6 0
BBX 5 8 1 0
BITMAP
80
80
F0
88
88
88
88
F0
ENDCHAR
STARTCHAR c
ENCODING 99
SWIDTH 600 0
DWIDTH 6 0
BBX 5 6 1 0
BITMAP
70
88
80
80
88
70
ENDCHAR
STARTCHAR d
ENCODING 100
SWIDTH 600 0
DWIDTH 6 0
BBX 5 8 1 0
BITMAP
18
08
78
88
88
88
88
78
ENDCHAR
STARTCHAR e
ENCODING 101
SWIDTH 600 0
DWIDTH 6 0
BBX 5 6 1 0
BITMAP
70
88
F8
80
80
70
ENDCHAR
STARTCHAR f
ENCODING 102
SWIDTH 600 0
DWIDTH 6 0
BBX 5 8 1 0
BITMAP
38
40
F0
40
40
40
40
40
ENDCHAR
STARTCHAR g
ENCODING 103
SWIDTH 600 0
DWIDTH 6 0
BBX 5 8 1 -2
BITMAP
78
88
88
88
88
78
08
70
ENDCHAR
STARTCHAR h
ENCODING 104
SWIDTH 600 0
DWIDTH 6 0
BBX 5 8 1 0
BITMAP
80
80
B0
C8
88
88
88
88
ENDCHAR
STARTCHAR i
ENCODING 105
SWIDTH 600 0
DWIDTH 6 0
BBX 5 8 1 0
BITMAP
20
00
E0
20
20
20
20
F8
ENDCHAR
STARTCHAR j
ENCODING 106
SWIDTH 600 0
DWIDTH 6 0
BBX 4 10 0 -2
BITMAP
10
00
70
10
10
10
10
10
10
E0
ENDCHAR
STARTCHAR k
ENCODING 107
SWIDTH 600 0
DWIDTH 6 0
BBX 5 8 1 0
BITMAP
80
80
88
90
E0
A0
90
88
ENDCHAR
STARTCHAR l
ENCODING 108
SWIDTH 600 0
DWIDTH 6 0
BBX 5 8 1 0
BITMAP
60
20
20
20
20
20
20
F8
ENDCHAR
STARTCHAR m
ENCODING 109
SWIDTH 600 0
DWIDTH 6 0
BBX 5 6 1 0
BITMAP
D0
A8
A8
A8
A8
A8
ENDCHAR
STARTCHAR n
ENCODING 110
SWIDTH 600 0
DWIDTH 6 0
BBX 5 6 1 0
BITMAP
B0
C8
88
88
88
88
ENDCHAR
STARTCHAR o
ENCODING 111
SWIDTH 600 0
DWIDTH 6 0
BBX 5 6 1 0
BITMAP
70
88
88
88
88
70
ENDCHAR
STARTCHAR p
ENCODING 112
SWIDTH 600 0
DWIDTH 6 0
BBX 5 8 1 -2
BITMAP
F0
88
88
88
88
F0
80
80
ENDCHAR
STARTCHAR q
ENCODING 113
SWIDTH 600 0
DWIDTH 6 0
BBX 5 8 1 -2
BITMAP
78
88
88
88
88
78
08
08
ENDCHAR
STARTCHAR r
ENCODING 114
SWIDTH 600 0
DWIDTH 6 0
BBX 5 6 1 0
BITMAP
58
60
40
40
40
E0
ENDCHAR
STARTCHAR s
ENCODING 115
SWIDTH 600 0
DWIDTH 6 0
BBX 5 6 1 0
BITMAP
78
80
60
10
08
F0
ENDCHAR
STARTCHAR t
ENCODING 116
SWIDTH 600 0
DWIDTH 6 0
BBX 4 8 1 0
BITMAP
40
40
F0
40
40
40
40
30
ENDCHAR
STARTCHAR u
ENCODING 117
SWIDTH 600 0
DWIDTH 6 0
BBX 5 6 1 0
BITMAP
88
88
88
88
88
78
ENDCHAR
STARTCHAR v
ENCODING 118
SWIDTH 600 0
DWIDTH 6 0
BBX 5 6 1 0
BITMAP
88
88
50
50
20
20
ENDCHAR
STARTCHAR w
ENCODING 119
SWIDTH 600 0
DWIDTH 6 0
BBX 5 6 1 0
BITMAP
88
88
A8
A8
50
50
ENDCHAR
STARTCHAR x
ENCODING 120
SWIDTH 600 0
DWIDTH 6 0
BBX 5 6 1 0
BITMAP
88
50
20
20
50
88
ENDCHAR
STARTCHAR y
ENCODING 121
SWIDTH 600 0
DWIDTH 6 0
BBX 5 8 1 -2
BITMAP
88
88
50
50
20
20
40
C0
ENDCHAR
STARTCHAR z
ENCODING 122
SWIDTH 600 0
DWIDTH 6 0
BBX 5 6 1 0
BITMAP
F8
10
20
20
40
F8
ENDCHAR
STARTCHAR braceleft
ENCODING 123
SWIDTH 600 0
DWIDTH 6 0
BBX 4 10 1 -2
BITMAP
10
20
20
20
C0
20
20
20
20
10
ENDCHAR
STARTCHAR bar
ENCODING 124
SWIDTH 600 0
DWIDTH 6 0
BBX 1 10 3 -2
BITMAP
80
80
80
80
80
80
80
80
80
80
ENDCHAR
STARTCHAR braceright
ENCODING 125
SWIDTH 600 0
DWIDTH 6 0
BBX 4 10 2 -2
BITMAP
80
40
40
40
30
40
40
40
40
80
ENDCHAR
STARTCHAR asciitilde
ENCODING 126
SWIDTH 600 0
DWIDTH 6 0
BBX 5 4 1 4
BITMAP
48
A8
A8
90
ENDCHAR
STARTCHAR bullet
ENCODING 149
SWIDTH 600 0
DWIDTH 6 0
BBX 4 4 1 2
BITMAP
60
F0
F0
60
ENDCHAR
STARTCHAR space
ENCODING 154
SWIDTH 600 0
DWIDTH 6 0
BBX 0 0 0 0
BITMAP
ENDCHAR
STARTCHAR degree
ENCODING 156
SWIDTH 600 0
DWIDTH 6 0
BBX 4 4 1 4
BITMAP
60
90
90
60
ENDCHAR
STARTCHAR twosuperior
ENCODING 157
SWIDTH 600 0
DWIDTH 6 0
BBX 3 5 2 4
BITMAP
C0
20
40
80
E0
ENDCHAR
STARTCHAR periodcentered
ENCODING 158
SWIDTH 600 0
DWIDTH 6 0
BBX 2 2 2 3
BITMAP
C0
C0
ENDCHAR
STARTCHAR afii10071
ENCODING 163
SWIDTH 600 0
DWIDTH 6 0
BBX 5 8 1 0
BITMAP
50
00
70
88
F8
80
80
70
ENDCHAR
STARTCHAR afii10023
ENCODING 179
SWIDTH 600 0
DWIDTH 6 0
BBX 5 10 1 0
BITMAP
50
00
F8
88
80
F0
80
80
88
F8
ENDCHAR
STARTCHAR copyright
ENCODING 191
SWIDTH 600 0
DWIDTH 6 0
BBX 6 10 0 -2
BITMAP
78
84
B4
C4
C4
C4
C4
B4
84
78
ENDCHAR
STARTCHAR afii10096
ENCODING 192
SWIDTH 600 0
DWIDTH 6 0
BBX 5 6 1 0
BITMAP
90
A8
E8
A8
A8
90
ENDCHAR
STARTCHAR afii10065
ENCODING 193
SWIDTH 600 0
DWIDTH 6 0
BBX 5 6 1 0
BITMAP
70
08
78
88
88
78
ENDCHAR
STARTCHAR afii10066
ENCODING 194
SWIDTH 600 0
DWIDTH 6 0
BBX 5 8 1 0
BITMAP
08
70
80
F8
88
88
88
70
ENDCHAR
STARTCHAR afii10088
ENCODING 195
SWIDTH 600 0
DWIDTH 6 0
BBX 5 7 1 -1
BITMAP
90
90
90
90
90
F8
08
ENDCHAR
STARTCHAR afii10069
ENCODING 196
SWIDTH 600 0
DWIDTH 6 0
BBX 6 7 0 -1
BITMAP
38
28
28
28
48
FC
84
ENDCHAR
STARTCHAR afii10070
ENCODING 197
SWIDTH 600 0
DWIDTH 6 0
BBX 5 6 1 0
BITMAP
70
88
F8
80
80
70
ENDCHAR
STARTCHAR afii10086
ENCODING 198
SWIDTH 600 0
DWIDTH 6 0
BBX 5 9 1 -2
BITMAP
20
70
A8
A8
A8
A8
70
20
20
ENDCHAR
STARTCHAR afii10068
ENCODING 199
SWIDTH 600 0
DWIDTH 6 0
BBX 5 6 1 0
BITMAP
F8
48
40
40
40
E0
ENDCHAR
STARTCHAR afii10087
ENCODING 200
SWIDTH 600 0
DWIDTH 6 0
BBX 5 6 1 0
BITMAP
88
50
20
20
50
88
ENDCHAR
STARTCHAR afii10074
ENCODING 201
SWIDTH 600 0
DWIDTH 6 0
BBX 5 6 1 0
BITMAP
88
88
98
A8
C8
88
ENDCHAR
STARTCHAR afii10075
ENCODING 202
SWIDTH 600 0
DWIDTH 6 0
BBX 5 8 1 0
BITMAP
50
20
88
88
98
A8
C8
88
ENDCHAR
STARTCHAR afii10076
ENCODING 203
SWIDTH 600 0
DWIDTH 6 0
BBX 5 6 1 0
BITMAP
88
90
E0
A0
90
88
ENDCHAR
STARTCHAR afii10077
ENCODING 204
SWIDTH 600 0
DWIDTH 6 0
BBX 5 6 1 0
BITMAP
38
48
48
48
48
88
ENDCHAR
STARTCHAR afii10078
ENCODING 205
SWIDTH 600 0
DWIDTH 6 0
BBX 5 6 1 0
BITMAP
88
D8
A8
A8
88
88
ENDCHAR
STARTCHAR afii10079
ENCODING 206
SWIDTH 600 0
DWIDTH 6 0
BBX 5 6 1 0
BITMAP
88
88
F8
88
88
88
ENDCHAR
STARTCHAR afii10080
ENCODING 207
SWIDTH 600 0
DWIDTH 6 0
BBX 5 6 1 0
BITMAP
70
88
88
88
88
70
ENDCHAR
STARTCHAR afii10081
ENCODING 208
SWIDTH 600 0
DWIDTH 6 0
BBX 5 6 1 0
BITMAP
F8
88
88
88
88
88
ENDCHAR
STARTCHAR afii10097
ENCODING 209
SWIDTH 600 0
DWIDTH 6 0
BBX 5 6 1 0
BITMAP
78
88
88
78
48
88
ENDCHAR
STARTCHAR afii10082
ENCODING 210
SWIDTH 600 0
DWIDTH 6 0
BBX 5 8 1 -2
BITMAP
F0
88
88
88
88
F0
80
80
ENDCHAR
STARTCHAR afii10083
ENCODING 211
SWIDTH 600 0
DWIDTH 6 0
BBX 5 6 1 0
BITMAP
70
88
80
80
88
70
ENDCHAR
STARTCHAR afii10084
ENCODING 212
SWIDTH 600 0
DWIDTH 6 0
BBX 5 6 1 0
BITMAP
F8
A8
20
20
20
70
ENDCHAR
STARTCHAR afii10085
ENCODING 213
SWIDTH 600 0
DWIDTH 6 0
BBX 5 8 1 -2
BITMAP
88
88
48
50
30
20
20
C0
ENDCHAR
STARTCHAR afii10072
ENCODING 214
SWIDTH 600 0
DWIDTH 6 0
BBX 5 6 1 0
BITMAP
A8
A8
70
A8
A8
A8
ENDCHAR
STARTCHAR afii10067
ENCODING 215
SWIDTH 600 0
DWIDTH 6 0
BBX 5 6 1 0
BITMAP
F0
88
F0
88
88
F0
ENDCHAR
STARTCHAR afii10094
ENCODING 216
SWIDTH 600 0
DWIDTH 6 0
BBX 5 6 1 0
BITMAP
80
80
F0
88
88
F0
ENDCHAR
STARTCHAR afii10093
ENCODING 217
SWIDTH 600 0
DWIDTH 6 0
BBX 5 6 1 0
BITMAP
88
88
E8
98
98
E8
ENDCHAR
STARTCHAR afii10073
ENCODING 218
SWIDTH 600 0
DWIDTH 6 0
BBX 5 6 1 0
BITMAP
F0
88
30
08
88
70
ENDCHAR
STARTCHAR afii10090
ENCODING 219
SWIDTH 600 0
DWIDTH 6 0
BBX 5 6 1 0
BITMAP
A8
A8
A8
A8
A8
F8
ENDCHAR
STARTCHAR afii10095
ENCODING 220
SWIDTH 600 0
DWIDTH 6 0
BBX 5 6 1 0
BITMAP
70
88
38
08
88
70
ENDCHAR
STARTCHAR afii10091
ENCODING 221
SWIDTH 600 0
DWIDTH 6 0
BBX 5 7 1 -1
BITMAP
A8
A8
A8
A8
A8
F8
08
ENDCHAR
STARTCHAR afii10089
ENCODING 222
SWIDTH 600 0
DWIDTH 6 0
BBX 5 6 1 0
BITMAP
88
88
98
68
08
08
ENDCHAR
STARTCHAR afii10092
ENCODING 223
SWIDTH 600 0
DWIDTH 6 0
BBX 6 6 0 0
BITMAP
E0
20
38
24
24
38
ENDCHAR
STARTCHAR afii10048
ENCODING 224
SWIDTH 600 0
DWIDTH 6 0
BBX 5 8 1 0
BITMAP
90
A8
A8
E8
A8
A8
A8
90
ENDCHAR
STARTCHAR afii10017
ENCODING 225
SWIDTH 600 0
DWIDTH 6 0
BBX 5 8 1 0
BITMAP
20
20
50
50
70
88
88
88
ENDCHAR
STARTCHAR afii10018
ENCODING 226
SWIDTH 600 0
DWIDTH 6 0
BBX 5 8 1 0
BITMAP
F8
88
80
F0
88
88
88
F0
ENDCHAR
STARTCHAR afii10040
ENCODING 227
SWIDTH 600 0
DWIDTH 6 0
BBX 5 9 1 -1
BITMAP
90
90
90
90
90
90
90
F8
08
ENDCHAR
STARTCHAR afii10021
ENCODING 228
SWIDTH 600 0
DWIDTH 6 0
BBX 6 9 0 -1
BITMAP
38
28
28
28
28
28
48
FC
84
ENDCHAR
STARTCHAR afii10022
ENCODING 229
SWIDTH 600 0
DWIDTH 6 0
BBX 5 8 1 0
BITMAP
F8
88
80
F0
80
80
88
F8
ENDCHAR
STARTCHAR afii10038
ENCODING 230
SWIDTH 600 0
DWIDTH 6 0
BBX 5 9 1 0
BITMAP
20
70
A8
A8
A8
A8
A8
70
20
ENDCHAR
STARTCHAR afii10020
ENCODING 231
SWIDTH 600 0
DWIDTH 6 0
BBX 5 8 1 0
BITMAP
F8
48
40
40
40
40
40
E0
ENDCHAR
STARTCHAR afii10039
ENCODING 232
SWIDTH 600 0
DWIDTH 6 0
BBX 5 8 1 0
BITMAP
88
50
50
20
20
50
50
88
ENDCHAR
STARTCHAR afii10026
ENCODING 233
SWIDTH 600 0
DWIDTH 6 0
BBX 5 8 1 0
BITMAP
88
88
88
98
A8
C8
88
88
ENDCHAR
STARTCHAR afii10027
ENCODING 234
SWIDTH 600 0
DWIDTH 6 0
BBX 5 10 1 0
BITMAP
50
20
88
88
88
98
A8
C8
88
88
ENDCHAR
STARTCHAR afii10028
ENCODING 235
SWIDTH 600 0
DWIDTH 6 0
BBX 5 8 1 0
BITMAP
88
90
A0
C0
A0
90
90
88
ENDCHAR
STARTCHAR afii10029
ENCODING 236
SWIDTH 600 0
DWIDTH 6 0
BBX 5 8 1 0
BITMAP
38
48
48
48
48
48
48
88
ENDCHAR
STARTCHAR afii10030
ENCODING 237
SWIDTH 600 0
DWIDTH 6 0
BBX 5 8 1 0
BITMAP
88
88
D8
A8
A8
A8
88
88
ENDCHAR
STARTCHAR afii10031
ENCODING 238
SWIDTH 600 0
DWIDTH 6 0
BBX 5 8 1 0
BITMAP
88
88
88
F8
88
88
88
88
ENDCHAR
STARTCHAR afii10032
ENCODING 239
SWIDTH 600 0
DWIDTH 6 0
BBX 5 8 1 0
BITMAP
70
88
88
88
88
88
88
70
ENDCHAR
STARTCHAR afii10033
ENCODING 240
SWIDTH 600 0
DWIDTH 6 0
BBX 5 8 1 0
BITMAP
F8
88
88
88
88
88
88
88
ENDCHAR
STARTCHAR afii10049
ENCODING 241
SWIDTH 600 0
DWIDTH 6 0
BBX 5 8 1 0
BITMAP
78
88
88
88
78
88
88
88
ENDCHAR
STARTCHAR afii10034
ENCODING 242
SWIDTH 600 0
DWIDTH 6 0
BBX 5 8 1 0
BITMAP
F0
88
88
88
F0
80
80
80
ENDCHAR
STARTCHAR afii10035
ENCODING 243
SWIDTH 600 0
DWIDTH 6 0
BBX 5 8 1 0
BITMAP
70
88
80
80
80
80
88
70
ENDCHAR
STARTCHAR afii10036
ENCODING 244
SWIDTH 600 0
DWIDTH 6 0
BBX 5 8 1 0
BITMAP
F8
A8
20
20
20
20
20
70
ENDCHAR
STARTCHAR afii10037
ENCODING 245
SWIDTH 600 0
DWIDTH 6 0
BBX 5 8 1 0
BITMAP
88
88
48
48
30
10
90
60
ENDCHAR
STARTCHAR afii10024
ENCODING 246
SWIDTH 600 0
DWIDTH 6 0
BBX 5 8 1 0
BITMAP
A8
A8
A8
70
A8
A8
A8
A8
ENDCHAR
STARTCHAR afii10019
ENCODING 247
SWIDTH 600 0
DWIDTH 6 0
BBX 5 8 1 0
BITMAP
F0
88
88
F0
88
88
88
F0
ENDCHAR
STARTCHAR afii10046
ENCODING 248
SWIDTH 600 0
DWIDTH 6 0
BBX 5 8 1 0
BITMAP
80
80
80
F0
88
88
88
F0
ENDCHAR
STARTCHAR afii10045
ENCODING 249
SWIDTH 600 0
DWIDTH 6 0
BBX 5 8 1 0
BITMAP
88
88
88
E8
98
98
98
E8
ENDCHAR
STARTCHAR afii10025
ENCODING 250
SWIDTH 600 0
DWIDTH 6 0
BBX 5 8 1 0
BITMAP
B0
C8
88
30
08
88
88
70
ENDCHAR
STARTCHAR afii10042
ENCODING 251
SWIDTH 600 0
DWIDTH 6 0
BBX 5 8 1 0
BITMAP
A8
A8
A8
A8
A8
A8
A8
F8
ENDCHAR
STARTCHAR afii10047
ENCODING 252
SWIDTH 600 0
DWIDTH 6 0
BBX 5 8 1 0
BITMAP
70
88
88
38
08
88
88
70
ENDCHAR
STARTCHAR afii10043
ENCODING 253
SWIDTH 600 0
DWIDTH 6 0
BBX 5 9 1 -1
BITMAP
A8
A8
A8
A8
A8
A8
A8
F8
08
ENDCHAR
STARTCHAR afii10041
ENCODING 254
SWIDTH 600 0
DWIDTH 6 0
BBX 5 8 1 0
BITMAP
88
88
88
88
98
68
08
08
ENDCHAR
STARTCHAR afii10044
ENCODING 255
SWIDTH 600 0
DWIDTH 6 0
BBX 6 8 0 0
BITMAP
E0
A0
20
38
24
24
24
38
ENDCHAR
ENDFONT
